<?xml version="1.0" encoding="utf-8"?>
<!-- Generator: Adobe Illustrator 19.1.0, SVG Export Plug-In . SVG Version: 6.00 Build 0)  -->
<!DOCTYPE svg PUBLIC "-//W3C//DTD SVG 1.1//EN" "http://www.w3.org/Graphics/SVG/1.1/DTD/svg11.dtd">
<svg version="1.1" id="Layer_1" xmlns="http://www.w3.org/2000/svg" xmlns:xlink="http://www.w3.org/1999/xlink" x="0px" y="0px"
	 width="476px" height="184px" viewBox="255 281 476 184" enable-background="new 255 281 476 184" xml:space="preserve">
<g>
	<g>
		<g>
			<path fill="#E35131" d="M444.9,342c0-0.4,0.1-0.7,0.3-1c0.2-0.2,0.5-0.4,1-0.4H465c2,0,3.9,0.4,5.6,1.1s3.3,1.8,4.6,3
				c1.3,1.3,2.3,2.8,3.1,4.5c0.7,1.7,1.1,3.5,1.1,5.5c0,1.3-0.2,2.6-0.5,3.8c-0.4,1.2-0.9,2.3-1.5,3.3s-1.4,2-2.3,2.8
				s-1.8,1.6-2.9,2.2l7.5,14.1c0.1,0.3,0.3,0.6,0.5,1s0.3,0.7,0.3,1s-0.1,0.5-0.3,0.7s-0.5,0.2-0.8,0.2h-10c-0.3,0-0.6-0.1-0.9-0.3
				c-0.3-0.2-0.4-0.5-0.5-0.8l-7.1-13.3h-4.7v13.1c0,0.8-0.4,1.2-1.3,1.2h-8.6c-0.4,0-0.7-0.1-0.9-0.3c-0.2-0.2-0.3-0.5-0.3-0.9V342
				H444.9z M467.7,354.9c0-0.6-0.1-1.2-0.3-1.7c-0.2-0.6-0.5-1.1-0.9-1.6s-0.9-0.9-1.4-1.2c-0.5-0.3-1.1-0.5-1.8-0.6
				c-0.5,0-1-0.1-1.5-0.1s-1,0-1.6,0h-4v10.7h5.3c0.3,0,0.7,0,0.9,0c0.3,0,0.6,0,0.9-0.1c0.7-0.1,1.3-0.3,1.8-0.6
				c0.5-0.3,1-0.7,1.4-1.2s0.6-1,0.8-1.6C467.6,356.1,467.7,355.5,467.7,354.9z"/>
			<path fill="#E35131" d="M520.7,381.6c0,0.3-0.1,0.6-0.2,0.9s-0.3,0.5-0.6,0.7c-0.2,0.2-0.5,0.3-0.8,0.4c-0.3,0.1-0.5,0.1-0.8,0.1
				h-5.7c-0.4,0-0.7-0.1-1-0.2s-0.5-0.3-0.6-0.5c-0.2-0.2-0.3-0.4-0.4-0.7c-0.1-0.3-0.2-0.6-0.3-0.9l-0.8-2.2
				c-0.5,0.5-1.1,1.1-1.7,1.7s-1.3,1.1-2,1.6s-1.6,0.9-2.4,1.3c-0.9,0.3-1.8,0.5-2.8,0.5c-1.8,0-3.5-0.2-5.1-0.7
				c-1.6-0.4-3.1-1.1-4.5-1.9s-2.7-1.8-3.8-3s-2.1-2.4-2.9-3.8s-1.5-2.9-1.9-4.6c-0.4-1.6-0.7-3.3-0.7-5.1c0-2.7,0.5-5.2,1.5-7.5
				s2.3-4.3,4-6s3.7-3.1,6-4c2.3-1,4.8-1.5,7.4-1.5c1.2,0,2.3,0.2,3.3,0.5c1,0.4,1.9,0.8,2.7,1.4c0.8,0.6,1.6,1.2,2.2,2
				c0.7,0.7,1.3,1.5,1.8,2.2l1.1-3.5c0.2-0.5,0.4-0.9,0.5-1.2c0.1-0.3,0.3-0.5,0.4-0.7c0.1-0.1,0.3-0.2,0.5-0.3
				c0.2,0,0.5-0.1,0.9-0.1h4.3c0.2,0,0.5,0,0.8,0.1c0.3,0.1,0.5,0.2,0.8,0.4c0.3,0.2,0.5,0.5,0.6,0.7c0.1,0.3,0.2,0.6,0.2,0.9V381.6
				z M492.1,365.4c0,1.3,0.2,2.5,0.6,3.6s1,2.1,1.7,2.9s1.6,1.5,2.7,1.9c1,0.5,2.2,0.7,3.4,0.7c1.3,0,2.5-0.2,3.6-0.7
				s2.1-1.1,2.9-1.9s1.5-1.8,1.9-2.9c0.5-1.1,0.7-2.3,0.7-3.6c0-1.2-0.2-2.4-0.7-3.5s-1.1-2.1-1.9-3s-1.8-1.5-2.9-2
				s-2.3-0.7-3.6-0.7c-1.3,0-2.4,0.2-3.4,0.7s-1.9,1.2-2.7,2c-0.7,0.9-1.3,1.8-1.7,3C492.3,363,492.1,364.1,492.1,365.4z"/>
			<path fill="#E35131" d="M527.6,334.5c0-0.8,0.2-1.4,0.5-1.7c0.3-0.3,0.9-0.5,1.6-0.5h6.7c0.7,0,1.2,0.2,1.6,0.5
				c0.4,0.3,0.6,0.9,0.6,1.7v5.7c0,0.2-0.1,0.5-0.2,0.8s-0.3,0.5-0.5,0.8c-0.2,0.3-0.4,0.5-0.7,0.6c-0.3,0.2-0.6,0.2-0.9,0.2h-6.7
				c-1.4,0-2.1-0.8-2.1-2.4L527.6,334.5L527.6,334.5z M527.6,349.2c0-0.6,0.2-1.2,0.5-1.6c0.3-0.4,0.9-0.7,1.6-0.7h6.6
				c0.2,0,0.5,0.1,0.8,0.2c0.3,0.1,0.5,0.3,0.8,0.5c0.2,0.2,0.4,0.4,0.6,0.7c0.2,0.3,0.2,0.6,0.2,0.9v32.4c0,0.7-0.2,1.3-0.6,1.7
				c-0.4,0.4-1,0.6-1.7,0.6h-6.6c-1.4,0-2.1-0.7-2.1-2.2L527.6,349.2L527.6,349.2z"/>
			<path fill="#E35131" d="M546.5,347.4c0.3-0.2,0.5-0.3,0.8-0.4s0.5-0.1,0.8-0.1h4.4c0.3,0,0.6,0.1,0.9,0.2s0.5,0.3,0.6,0.5
				c0.2,0.2,0.3,0.5,0.4,0.7c0.1,0.3,0.2,0.5,0.3,0.8l0.9,3.7c0.3-0.6,0.7-1.3,1.3-2c0.6-0.8,1.3-1.5,2.1-2.1c0.9-0.7,1.9-1.2,3-1.7
				c1.2-0.5,2.5-0.7,4.1-0.7c2.2,0,4.2,0.4,6,1.3c1.8,0.8,3.3,2,4.6,3.5c1.3,1.5,2.2,3.2,2.9,5.1c0.7,2,1,4.1,1,6.3v19
				c0,0.7-0.2,1.3-0.5,1.7c-0.3,0.4-0.8,0.6-1.5,0.6H572c-0.8,0-1.4-0.1-1.7-0.4s-0.5-0.8-0.5-1.6v-18.9c0-0.8-0.2-1.6-0.6-2.4
				c-0.4-0.7-0.9-1.4-1.5-2c-0.6-0.6-1.3-1-2.1-1.4c-0.8-0.3-1.6-0.5-2.4-0.5c-0.7,0-1.4,0.2-2.1,0.5s-1.4,0.7-2,1.3
				c-0.6,0.6-1.1,1.2-1.5,1.9c-0.4,0.7-0.7,1.6-0.7,2.4v18.9c0,0.3-0.1,0.7-0.2,1s-0.3,0.6-0.6,0.8c-0.3,0.2-0.5,0.3-0.7,0.3
				c-0.2,0.1-0.5,0.1-0.8,0.1H548c-0.8,0-1.4-0.2-1.8-0.6s-0.6-0.9-0.6-1.6v-32.5c0-0.4,0.1-0.7,0.2-1
				C546,347.8,546.2,347.6,546.5,347.4L546.5,347.4z"/>
			<path fill="#E35131" d="M598,381.6c-0.2,0.4-0.3,0.7-0.4,1c-0.1,0.3-0.2,0.5-0.4,0.7c-0.1,0.2-0.3,0.3-0.5,0.4s-0.5,0.1-0.9,0.1
				H590c-1.5,0-2.3-0.7-2.3-2.2v-43.4c0-0.3,0.1-0.6,0.2-0.9c0.1-0.3,0.3-0.5,0.5-0.7c0.2-0.2,0.4-0.3,0.7-0.5
				c0.3-0.1,0.5-0.2,0.8-0.2h6.6c0.7,0,1.3,0.2,1.7,0.6c0.4,0.4,0.6,0.9,0.6,1.6v13.2c0.5-0.6,1.1-1.2,1.7-1.8
				c0.6-0.6,1.3-1.1,2-1.6s1.5-0.9,2.4-1.2c0.9-0.3,1.8-0.5,2.9-0.5c2.6,0,5.1,0.5,7.3,1.5s4.1,2.3,5.7,4s2.8,3.7,3.7,6
				s1.4,4.8,1.4,7.5s-0.5,5.2-1.4,7.5s-2.1,4.3-3.7,6.1c-1.6,1.7-3.5,3.1-5.7,4.1s-4.6,1.5-7.3,1.5c-1,0-1.9-0.2-2.8-0.5
				c-0.9-0.3-1.7-0.8-2.4-1.3c-0.8-0.5-1.5-1.1-2.1-1.7c-0.6-0.6-1.2-1.2-1.7-1.7L598,381.6z M615.5,365.4c0-1.2-0.2-2.4-0.6-3.5
				c-0.4-1.1-1-2.1-1.7-3s-1.6-1.5-2.6-2s-2.2-0.7-3.5-0.7s-2.5,0.2-3.6,0.7s-2.1,1.2-2.9,2c-0.8,0.9-1.5,1.8-1.9,3
				c-0.5,1.1-0.7,2.3-0.7,3.5v0.4c0.1,1.2,0.3,2.4,0.8,3.4c0.5,1.1,1.1,2,2,2.8c0.8,0.8,1.8,1.4,2.8,1.8c1.1,0.4,2.2,0.7,3.5,0.7
				s2.4-0.2,3.5-0.7c1-0.5,1.9-1.1,2.6-1.9c0.7-0.8,1.3-1.8,1.7-2.9C615.3,367.9,615.5,366.7,615.5,365.4z"/>
			<path fill="#E35131" d="M629.5,365.4c0-1.8,0.2-3.5,0.7-5.1s1.1-3.2,1.9-4.6c0.8-1.4,1.8-2.7,3-3.8c1.2-1.2,2.4-2.1,3.8-2.9
				c1.4-0.8,2.9-1.4,4.6-1.9c1.6-0.4,3.3-0.7,5.1-0.7c2.6,0,5.1,0.5,7.4,1.5c2.3,1,4.3,2.3,6,4s3.1,3.7,4.1,6s1.5,4.8,1.5,7.5
				c0,1.8-0.2,3.5-0.7,5.1s-1.1,3.2-1.9,4.6c-0.8,1.4-1.8,2.7-3,3.8c-1.2,1.2-2.4,2.1-3.8,3c-1.4,0.8-2.9,1.5-4.5,1.9
				s-3.3,0.7-5.1,0.7s-3.5-0.2-5.1-0.7c-1.6-0.4-3.2-1.1-4.6-1.9c-1.4-0.8-2.7-1.8-3.8-3s-2.1-2.4-3-3.8c-0.8-1.4-1.5-2.9-1.9-4.6
				C629.7,368.9,629.5,367.2,629.5,365.4z M640.1,365.4c0,1.3,0.2,2.5,0.6,3.6c0.4,1.1,1,2.1,1.7,2.9s1.6,1.5,2.6,1.9
				c1,0.5,2.2,0.7,3.5,0.7s2.4-0.2,3.4-0.7s1.9-1.1,2.6-1.9c0.7-0.8,1.2-1.8,1.6-2.9c0.4-1.1,0.6-2.3,0.6-3.6c0-1.2-0.2-2.4-0.6-3.5
				c-0.4-1.1-0.9-2.1-1.6-3c-0.7-0.9-1.6-1.5-2.6-2s-2.2-0.7-3.4-0.7c-1.3,0-2.5,0.2-3.5,0.7s-1.9,1.2-2.6,2c-0.7,0.9-1.3,1.8-1.7,3
				C640.3,363,640.1,364.1,640.1,365.4z"/>
			<path fill="#E35131" d="M667.9,349.8c-0.4-0.8-0.5-1.5-0.2-2c0.2-0.6,0.8-0.8,1.7-0.8h7.4c0.5,0,0.9,0.1,1.3,0.4
				c0.4,0.3,0.6,0.7,0.8,1.2c0.3,1,0.7,2.2,1.1,3.4c0.4,1.3,0.8,2.6,1.2,3.9s0.9,2.6,1.3,3.9c0.4,1.3,0.8,2.5,1.2,3.6s0.7,2,1,2.9
				c0.3,0.8,0.5,1.4,0.6,1.7l6.2-19.4c0.3-0.6,0.5-1,0.9-1.2c0.3-0.2,0.8-0.3,1.4-0.3h6.9c0.6,0,1,0.1,1.3,0.2s0.5,0.3,0.6,0.6
				c0.1,0.2,0.1,0.5,0.1,0.8c-0.1,0.3-0.2,0.6-0.3,0.9l-3.2,7.8c0.1,0.3,0.4,0.9,0.8,1.7c0.4,0.8,0.8,1.7,1.3,2.7s1,2,1.5,3.1
				s0.9,2.1,1.3,3.1l7.1-19.3c0.3-0.6,0.5-1,0.8-1.2s0.7-0.3,1.2-0.3h6.4c0.9,0,1.6,0.2,1.9,0.5c0.3,0.3,0.4,1,0.1,2L708,382.8
				c-0.2,0.3-0.4,0.6-0.8,0.9c-0.4,0.2-0.9,0.4-1.6,0.4h-3c-0.8,0-1.3-0.1-1.7-0.4c-0.3-0.2-0.6-0.6-0.8-0.9l-5.4-13.2l-5.3,13.2
				c-0.2,0.3-0.5,0.6-0.8,0.9c-0.3,0.2-0.7,0.4-1.3,0.4h-3.5c-0.8,0-1.3-0.1-1.6-0.3c-0.3-0.2-0.6-0.5-0.7-0.9L667.9,349.8z"/>
		</g>
		<g>
			<g opacity="0.65">
				<g>
					<path d="M596.5,409.6h2.7c0.4,0,0.8,0,1.1-0.1c0.4-0.1,0.7-0.2,1-0.4c0.3-0.2,0.6-0.4,0.8-0.6c0.3-0.2,0.5-0.5,0.6-0.8
						c0.2-0.3,0.3-0.6,0.4-1c0.1-0.3,0.1-0.7,0.1-1.1s0-0.7-0.1-1.1c-0.1-0.3-0.2-0.7-0.4-1s-0.4-0.6-0.6-0.8
						c-0.3-0.2-0.5-0.5-0.8-0.6c-0.3-0.2-0.6-0.3-1-0.4s-0.7-0.1-1.1-0.1h-2.7V409.6L596.5,409.6z M598.7,408.8h-1.4v-6.6h1.7
						c0.5,0,0.9,0.1,1.3,0.2c0.4,0.2,0.8,0.4,1.1,0.7c0.3,0.3,0.6,0.7,0.7,1.1c0.2,0.4,0.3,0.9,0.3,1.3s-0.1,0.9-0.2,1.3
						c-0.2,0.4-0.4,0.7-0.7,1c-0.3,0.3-0.6,0.5-1,0.7s-0.8,0.3-1.2,0.3c-0.1,0-0.2,0-0.3,0S598.8,408.8,598.7,408.8z"/>
				</g>
				<g>
					<path d="M609.3,409.6h0.8l-2.8-4.1l2.6-3.9h-0.8l-2.2,3.3l-2.2-3.3h-0.8l2.6,3.9l-2.8,4.1h0.8l2.3-3.5L609.3,409.6z"/>
				</g>
			</g>
			<g>
				<path d="M488.6,398.6c-3.3,0-6.9,2.2-6.9,6.9c0,4.8,3.6,7,6.9,7s6.9-2.2,6.9-7S491.9,398.6,488.6,398.6z M488.6,409.6
					c-1.9,0-3.8-1.4-3.8-4.1s1.9-4,3.8-4s3.8,1.4,3.8,4C492.4,408.2,490.5,409.6,488.6,409.6z"/>
			</g>
			<g>
				<path d="M508.2,412.2h0.9v-13.4H506v7.2l-7.8-7.2h-0.9v13.4h3.1V405L508.2,412.2z"/>
			</g>
			<g>
				<path d="M511.7,412.2h3.1V405l7.8,7.2h0.9v-13.4h-3.1v7.2l-7.8-7.2h-0.9V412.2z"/>
			</g>
			<g>
				<path d="M526.2,412.2h8.7v-2.6h-5.7v-3h5.1V404h-5.1v-2.5h5.5v-2.6h-8.5V412.2z"/>
			</g>
			<g>
				<path d="M553.3,412.2h3v-10.7h4.1v-2.6h-10.9v2.6h3.8V412.2z"/>
			</g>
			<g>
				<path d="M562.4,412.2h2.9v-13.4h-3L562.4,412.2z"/>
			</g>
			<g>
				<path d="M573,412.3h1.1l5.8-13.3v-0.2h-3l-3.2,7.9h-0.5l-3.3-7.9h-3v0.2L573,412.3z"/>
			</g>
			<g>
				<path d="M581.4,412.2h8.7v-2.6h-5.7v-3h5.1V404h-5.1v-2.5h5.5v-2.6h-8.5V412.2z"/>
			</g>
			<g>
				<path d="M476.3,398.6c-3.3,0-6.8,2.1-6.9,6.8c0,4.7,3.5,6.8,6.8,6.8v0.3v-0.3c1.9,0,3.5-0.6,4.7-1.7l-1.9-1.9
					c-0.4,0.3-1.4,1-2.8,1c-2.1,0-3.7-1.8-3.7-4.1c0-2.5,1.5-4.2,3.7-4.2c1.4,0,2.4,0.7,2.8,1.1l2-2
					C479.9,399.3,478.2,398.6,476.3,398.6z"/>
			</g>
			<g>
				<path d="M543.5,398.6c-3.3,0-6.8,2.1-6.9,6.8c0,4.7,3.5,6.8,6.8,6.8v0.3v-0.3c1.9,0,3.5-0.6,4.7-1.7l-1.9-1.9
					c-0.4,0.3-1.4,1-2.8,1c-2.1,0-3.7-1.8-3.7-4.1c0-2.5,1.5-4.2,3.7-4.2c1.4,0,2.4,0.7,2.8,1.1l2-2
					C547,399.3,545.3,398.6,543.5,398.6z"/>
			</g>
		</g>
		<g>
			<path fill="#58595B" d="M447.5,401.6c0-0.1,0-0.1,0.1-0.2c0,0,0.1-0.1,0.2-0.1h3.3c0.3,0,0.6,0.1,0.8,0.2
				c0.3,0.1,0.5,0.3,0.7,0.5s0.3,0.4,0.5,0.7c0.1,0.3,0.2,0.5,0.2,0.8c0,0.2,0,0.5-0.1,0.7s-0.2,0.4-0.3,0.6
				c0.2,0.2,0.4,0.5,0.6,0.8c0.1,0.3,0.2,0.6,0.2,1c0,0.3-0.1,0.6-0.2,0.9s-0.3,0.5-0.5,0.7s-0.4,0.4-0.7,0.5
				c-0.3,0.1-0.5,0.2-0.8,0.2h-3.6c-0.1,0-0.1,0-0.2-0.1c0,0-0.1-0.1-0.1-0.2v-7H447.5z M451.2,403.6c0-0.1,0-0.2-0.1-0.3
				c0-0.1-0.1-0.2-0.2-0.2c-0.1-0.1-0.1-0.1-0.2-0.2c-0.1,0-0.2-0.1-0.3-0.1h-1.1v1.4h1c0.1,0,0.2,0,0.3-0.1c0.1,0,0.2-0.1,0.2-0.1
				c0.1-0.1,0.1-0.1,0.2-0.2C451.2,403.8,451.2,403.7,451.2,403.6z M451.5,406.5c0-0.1,0-0.2-0.1-0.3c0-0.1-0.1-0.2-0.2-0.3
				s-0.1-0.1-0.2-0.2c-0.1,0-0.2-0.1-0.3-0.1h-1.3v1.6h1.3c0.1,0,0.2,0,0.3-0.1c0.1,0,0.2-0.1,0.2-0.2s0.1-0.2,0.2-0.3
				C451.4,406.7,451.5,406.6,451.5,406.5z"/>
			<path fill="#58595B" d="M457.1,404.1l1.2-2.6v-0.1l0,0l0,0c0,0,0,0,0.1,0h1.9c0,0,0,0,0.1,0c0,0,0,0,0,0.1c0,0,0,0.1-0.1,0.1
				l-2.3,4.1v2.8c0,0.2-0.1,0.2-0.2,0.2h-1.5c-0.1,0-0.1,0-0.2-0.1c0,0-0.1-0.1-0.1-0.2v-2.8l-2.3-4.1l-0.1-0.1c0,0,0,0,0-0.1
				c0,0,0,0,0.1,0h1.9c0,0,0,0,0.1,0l0,0l0,0c0,0,0,0,0.1,0.1L457.1,404.1z"/>
		</g>
	</g>
	<g>
		<polygon fill="#E35131" points="337.7,462.6 260.7,417.1 261.7,327.7 339.6,283.8 416.5,329.3 415.6,418.7 		"/>
		<path fill="#FFFFFF" d="M361.8,398.2h26.7c0.3,0,0.6,0,1,0c0.7,0,1.4,0,1.8-0.1c5.1-0.8,8.9-5.3,8.9-10.4c0-4.6-3.1-8.7-7.6-10
			l-1.2-0.3l-0.3-1.2c-1.1-5.1-4.7-9.3-9.6-11.2l-0.9-0.3l-0.3-0.9c-6.2-17.8-23-29.8-41.8-29.8c-19.3,0-36.3,12.4-42.2,30.9
			l-0.2,0.8l-0.7,0.4c-2.8,1.6-5.1,4-6.4,7l-0.5,1l-1.1,0.1c-6,0.8-10.5,5.9-10.5,12c0,6.7,5.4,12.1,12.1,12.1h26.7c0.3,0,0.6,0,1,0
			c0.7,0,1.4,0,1.8-0.1c5.1-0.8,8.9-5.3,8.9-10.4c0-2.9-1.3-5.7-3.5-7.7l-0.7-0.6v-0.9c0-0.1,0-0.2,0-0.3c0-8.4,6.9-15.3,15.3-15.3
			c7.5,0,14,5.6,15.1,13.1l0.1,1l-0.7,0.7c-2.2,2.3-3.4,5.3-3.4,8.4C349.8,392.8,355.2,398.2,361.8,398.2z M300.6,361
			c6.8-15,21.7-24.6,38.1-24.6c16.4,0,31.3,9.7,38.1,24.6l1.2,2.7l-3,0.2c-2,0.1-3.9,0.6-5.7,1.5l-1.8,0.9l-0.9-1.8
			c-5.3-10.7-16-17.4-27.9-17.4c-11.6,0-22.1,6.4-27.5,16.7l-0.8,1.6l-1.7-0.6c-1.9-0.7-3.9-1-5.9-0.9l-3.6,0.1L300.6,361z
			 M325,387.7c0,3.9-2.9,7.3-6.7,7.9v-0.1c-0.5,0.1-1.1,0.1-1.6,0.1h-3.3H289c-5.3,0-9.6-4.3-9.6-9.6c0-5.3,4.3-9.6,9.6-9.6
			c0.1,0,0.4,0,0.6,0c3.3,0,6.1,0.8,8,2.3c-0.7-1.7-2.1-3-4.1-3.8l-2.3-0.9l1.3-2.1c2.5-4,5.4-5.5,10.7-5.5
			c7.1,0,12.9,5.6,13.1,12.7v0.6h0.7C321.4,379.8,325,383.4,325,387.7z M338.6,360.4c-7.9,0-14.9,5.3-17.1,12.9l-1.6,5.6l-2.2-5.4
			c-0.9-2.1-2.3-4.1-4-5.6l-1.2-1.1l0.7-1.4c4.9-9.7,14.7-15.7,25.5-15.7c11.3,0,21.6,6.8,26.2,17.2l0.5,1.2l-0.9,1
			c-1.1,1.2-1.9,2.5-2.6,3.9l-0.5,1l-1.1,0.1c-0.6,0.1-1.3,0.2-2,0.4l-2,0.6l-0.6-2C353.5,365.7,346.4,360.4,338.6,360.4z
			 M361.9,376.5c0.1,0,0.4,0,0.6,0c3.3,0,6.1,0.8,8,2.3c-0.7-1.7-2.1-3-4.1-3.8l-2.4-1l1.3-2.1c2.6-4,5.4-5.5,10.7-5.5
			c7.1,0,12.9,5.6,13.1,12.7v0.6h0.7c4.4,0.1,7.9,3.6,7.9,8c0,3.9-2.9,7.3-6.7,7.9v-0.1c-0.5,0.1-1.1,0.1-1.6,0.1h-3.3h-24.4
			c-5.3,0-9.6-4.3-9.6-9.6C352.3,380.8,356.6,376.5,361.9,376.5z"/>
	</g>
</g>
</svg>
