<svg xmlns="http://www.w3.org/2000/svg" width="128" height="128" viewBox="0 0 720 720">
  <path fill="#f00000" d="M363.933 45c-86.99 0-157.462 70.472-157.462 157.463 0 86.99 70.474 157.537 157.464 157.537-43.495-75.336-17.68-171.625 57.658-215.12 24.86-14.352 52.03-21.178 78.806-21.15C473.156 76.67 422.22 45 363.933 45z"/>
  <path fill="#ff8000" d="M636.73 202.5c-43.494-75.336-139.76-101.13-215.097-57.635-75.336 43.495-101.195 139.8-57.7 215.135 43.496-75.336 139.792-101.123 215.13-57.627 24.857 14.352 44.353 34.468 57.716 57.673 27.136-47.12 29.094-107.067-.05-157.546z"/>
  <path fill="#ff0" d="M636.73 517.5c43.497-75.336 17.702-171.603-57.634-215.098C503.76 258.906 407.43 284.664 363.933 360c86.99 0 157.47 70.502 157.47 157.493 0 28.704-7.672 55.646-21.086 78.822 54.376-.06 107.27-28.336 136.414-78.815z"/>
  <path fill="#007940" d="M363.933 675c86.99 0 157.463-70.472 157.463-157.463 0-86.99-70.472-157.537-157.463-157.537 43.496 75.336 17.68 171.625-57.657 215.12-24.858 14.352-52.028 21.178-78.805 21.15C254.71 643.33 305.648 675 363.935 675z"/>
  <path fill="#4040ff" d="M91.135 517.5c43.496 75.336 139.762 101.13 215.1 57.635C381.57 531.64 407.428 435.335 363.932 360c-43.495 75.336-139.79 101.123-215.128 57.627-24.858-14.352-44.354-34.468-57.718-57.673-27.137 47.12-29.095 107.067.048 157.546z"/>
  <path fill="#a000c0" d="M91.135 202.5c-43.495 75.336-17.7 171.603 57.636 215.098C224.11 461.094 320.44 435.336 363.935 360c-86.99 0-157.47-70.502-157.47-157.493 0-28.704 7.673-55.646 21.087-78.822-54.375.06-107.27 28.336-136.414 78.815z"/>
  <text x="112.881" y="649.831" font-size="180" font-family="sans-serif" letter-spacing="0" word-spacing="0">
    <tspan x="200" y="600" fill="#FFF">SC</tspan>
  </text>
</svg>
